<mxfile host="app.diagrams.net" modified="2023-02-10T15:28:39.155Z" agent="5.0 (Macintosh; Intel Mac OS X 10_15_7) AppleWebKit/537.36 (KHTML, like Gecko) Chrome/107.0.0.0 Safari/537.36" etag="wHtNINS86E4y8T7NvGOT" version="20.8.19" type="github">
  <diagram name="第 1 页" id="zUdrmeqDP82fnsF1CGYj">
    <mxGraphModel dx="1026" dy="683" grid="1" gridSize="10" guides="1" tooltips="1" connect="1" arrows="1" fold="1" page="1" pageScale="1" pageWidth="827" pageHeight="1169" math="0" shadow="0">
      <root>
        <mxCell id="0" />
        <mxCell id="1" parent="0" />
        <mxCell id="_xZx_fcqIcw7nBH8p7se-3" value="" style="edgeStyle=orthogonalEdgeStyle;rounded=0;orthogonalLoop=1;jettySize=auto;html=1;fontSize=18;" edge="1" parent="1" source="_xZx_fcqIcw7nBH8p7se-1" target="_xZx_fcqIcw7nBH8p7se-2">
          <mxGeometry relative="1" as="geometry" />
        </mxCell>
        <mxCell id="_xZx_fcqIcw7nBH8p7se-1" value="&lt;font style=&quot;font-size: 18px;&quot;&gt;抽奖&lt;/font&gt;" style="rounded=1;whiteSpace=wrap;html=1;" vertex="1" parent="1">
          <mxGeometry x="220" y="160" width="120" height="60" as="geometry" />
        </mxCell>
        <mxCell id="_xZx_fcqIcw7nBH8p7se-5" value="" style="edgeStyle=orthogonalEdgeStyle;rounded=0;orthogonalLoop=1;jettySize=auto;html=1;fontSize=18;" edge="1" parent="1" source="_xZx_fcqIcw7nBH8p7se-2" target="_xZx_fcqIcw7nBH8p7se-4">
          <mxGeometry relative="1" as="geometry">
            <Array as="points">
              <mxPoint x="270" y="380" />
              <mxPoint x="270" y="380" />
            </Array>
          </mxGeometry>
        </mxCell>
        <mxCell id="_xZx_fcqIcw7nBH8p7se-2" value="&lt;font style=&quot;font-size: 18px;&quot;&gt;...&lt;/font&gt;" style="rounded=1;whiteSpace=wrap;html=1;" vertex="1" parent="1">
          <mxGeometry x="220" y="280" width="120" height="60" as="geometry" />
        </mxCell>
        <mxCell id="_xZx_fcqIcw7nBH8p7se-4" value="&lt;font style=&quot;font-size: 18px;&quot;&gt;发货&lt;/font&gt;" style="rounded=1;whiteSpace=wrap;html=1;" vertex="1" parent="1">
          <mxGeometry x="220" y="420" width="120" height="60" as="geometry" />
        </mxCell>
      </root>
    </mxGraphModel>
  </diagram>
</mxfile>
